<?xml version="1.0" encoding="UTF-8"?>
<svg version="1.1" xmlns="http://www.w3.org/2000/svg" width="1571" height="1448">
<path d="M0 0 C3.54809597 0.94639042 6.81877547 2.16092818 10.21166992 3.56811523 C11.20796165 3.97872444 11.20796165 3.97872444 12.22438049 4.39762878 C14.4000592 5.29675272 16.57158855 6.20542292 18.74291992 7.11499023 C20.27464837 7.75200973 21.80646939 8.38880668 23.33837891 9.02539062 C56.02982798 22.64196552 88.2955997 37.15704459 120.30541992 52.30249023 C121.09021729 52.67344818 121.87501465 53.04440613 122.68359375 53.42660522 C137.8066801 60.5823692 152.77054983 67.97476201 167.49291992 75.92749023 C169.30891103 76.90594395 171.12523424 77.8837792 172.94158936 78.86155701 C174.1841358 79.53050858 175.42652682 80.19974893 176.66876221 80.86927795 C180.91376479 83.15562352 185.16919392 85.42154921 189.43041992 87.67749023 C203.60893035 95.19287354 217.5796916 102.9805625 231.38012695 111.16967773 C234.23354858 112.85944064 237.09444486 114.53581198 239.95776367 116.20874023 C250.98594464 122.66377077 261.8714817 129.30459565 272.63208008 136.19604492 C275.52241714 138.04365518 278.41958929 139.88027554 281.31713867 141.71655273 C294.13494758 149.85613595 306.78651335 158.18309412 319.24291992 166.86499023 C320.05567383 167.42927734 320.86842773 167.99356445 321.70581055 168.57495117 C340.09386751 181.34403953 358.17226804 194.44953199 375.92651367 208.08764648 C377.9135853 209.61229672 379.90476074 211.13121285 381.89916992 212.64624023 C389.87518963 218.72696813 397.66279606 225.02355666 405.42260742 231.37670898 C407.01553857 232.67908402 408.61321512 233.97565055 410.21166992 235.27124023 C417.0626921 240.83265823 423.76131183 246.56054081 430.44458008 252.32104492 C432.20839716 253.83535109 433.97998883 255.33996406 435.75463867 256.84155273 C442.46181533 262.52760324 449.00377923 268.3488765 455.41699219 274.36523438 C458.28752759 277.05734972 461.17284851 279.70011891 464.18041992 282.23999023 C466.8639606 284.59429785 469.44017449 287.01409133 471.95385742 289.54858398 C472.62682861 290.22421387 473.2997998 290.89984375 473.99316406 291.59594727 C475.34955027 292.96501898 476.70299369 294.33701361 478.05322266 295.7121582 C478.67914307 296.34653809 479.30506348 296.98091797 479.94995117 297.63452148 C480.51174072 298.2079126 481.07353027 298.78130371 481.65234375 299.37207031 C483.37856269 301.07456939 483.37856269 301.07456939 486.24291992 302.86499023 C486.24291992 303.52499023 486.24291992 304.18499023 486.24291992 304.86499023 C486.82557617 305.10991211 487.40823242 305.35483398 488.00854492 305.60717773 C490.62885767 307.0822489 492.04860178 308.69569483 493.99291992 310.98999023 C498.88063765 316.57595335 504.09807371 321.78081346 509.39428711 326.97875977 C513.31471093 330.84991261 517.03035003 334.82443805 520.6262207 338.9987793 C522.89534175 341.61810296 525.25583873 344.14162229 527.61791992 346.67749023 C531.96616654 351.37874209 536.05563211 356.23748358 540.07104492 361.22827148 C542.18048341 363.78919052 544.3717964 366.23622478 546.61791992 368.67749023 C551.67318658 374.23301765 556.24714366 380.12260862 560.84008789 386.05932617 C562.20586104 387.81728966 563.58300837 389.56552708 564.96557617 391.31030273 C595.23372757 429.51218865 621.86723832 470.33842532 644.86694336 513.30541992 C646.12654403 515.64850961 647.40419083 517.98054944 648.68823242 520.31030273 C691.53290383 598.83826292 716.03823219 688.49749887 728.24291992 851.86499023 C728.20714844 852.78876465 728.17137695 853.71253906 728.13452148 854.66430664 C726.83689413 883.47258103 721.7199793 912.32098878 713.24291992 939.86499023 C712.75033691 941.49259277 712.75033691 941.49259277 712.24780273 943.15307617 C693.50792596 1004.39136294 655.78194097 1066.44609044 604.97338867 1106.69702148 C602.09206341 1108.98476901 599.295435 1111.35654283 596.49291992 1113.73999023 C542.81070175 1158.39477506 473.76083146 1185.03172994 404.24291992 1189.86499023 C403.43532227 1189.92138672 402.62772461 1189.9777832 401.7956543 1190.03588867 C365.01003689 1192.48923095 327.87906571 1189.46042584 292.24291992 1179.86499023 C291.4443457 1179.65680664 290.64577148 1179.44862305 289.82299805 1179.23413086 C255.3481093 1170.14707584 223.17124274 1152.86013369 195.24291992 1130.86499023 C194.44499023 1130.2475293 193.64706055 1129.63006836 192.82495117 1128.99389648 C190.26648297 1126.98635455 187.74978295 1124.93665896 185.24291992 1122.86499023 C184.72455566 1122.43831055 184.20619141 1122.01163086 183.67211914 1121.57202148 C168.96386045 1109.38554431 154.4743891 1096.02854167 142.80151367 1080.86108398 C141.38173919 1079.04277632 139.88683389 1077.47685575 138.24291992 1075.86499023 C140.78077056 1099.66010538 145.31923627 1122.25918688 153.24291992 1144.86499023 C153.48623047 1145.56027832 153.72954102 1146.25556641 153.98022461 1146.97192383 C165.15339297 1178.21424579 184.75003658 1204.31819763 207.86791992 1227.61499023 C208.37693848 1228.12876221 208.88595703 1228.64253418 209.41040039 1229.171875 C212.0736225 1231.85415628 212.0736225 1231.85415628 215.24291992 1233.86499023 C215.24291992 1234.52499023 215.24291992 1235.18499023 215.24291992 1235.86499023 C215.92354492 1236.07124023 216.60416992 1236.27749023 217.30541992 1236.48999023 C220.35384143 1237.91691094 222.41663724 1239.7401 224.91088867 1241.96264648 C230.34258522 1246.39352792 236.34436487 1250.09229446 242.24291992 1253.86499023 C243.21229492 1254.48631836 244.18166992 1255.10764648 245.18041992 1255.74780273 C261.3446436 1265.62083708 279.28489213 1272.10165528 297.24291992 1277.86499023 C298.02344727 1278.11764648 298.80397461 1278.37030273 299.6081543 1278.63061523 C326.03717085 1287.02818448 353.76751127 1288.13569905 381.24291992 1289.86499023 C380.30572645 1290.97214818 379.36652839 1292.07760943 378.42651367 1293.18237305 C377.64232056 1294.10605682 377.64232056 1294.10605682 376.84228516 1295.04840088 C374.46600662 1297.74742309 371.89627194 1300.19193227 369.24291992 1302.61499023 C368.68169434 1303.12884277 368.12046875 1303.64269531 367.54223633 1304.17211914 C361.37096287 1309.75108729 354.87363122 1314.84804205 348.24291992 1319.86499023 C347.53925293 1320.40381836 346.83558594 1320.94264648 346.1105957 1321.49780273 C327.54861467 1335.68344756 307.66745959 1347.57065108 287.24291992 1358.86499023 C286.41920898 1359.32083496 285.59549805 1359.77667969 284.74682617 1360.24633789 C260.5561177 1373.52161018 235.06514496 1384.21470477 209.24291992 1393.86499023 C208.6047937 1394.10433289 207.96666748 1394.34367554 207.3092041 1394.590271 C183.97114333 1403.33031485 160.32100677 1410.46523622 136.24291992 1416.86499023 C135.48172852 1417.06866211 134.72053711 1417.27233398 133.9362793 1417.48217773 C85.16894527 1430.52607208 35.42744013 1438.68725924 -14.75708008 1443.86499023 C-15.57366089 1443.95069275 -16.3902417 1444.03639526 -17.23156738 1444.12469482 C-69.67225915 1449.57012092 -126.57148207 1451.12924377 -178.75708008 1442.86499023 C-180.21130514 1442.64289056 -181.66557024 1442.42105289 -183.11987305 1442.19946289 C-225.24157504 1435.68002171 -275.44773946 1424.37766944 -305.75708008 1391.86499023 C-305.75708008 1391.20499023 -305.75708008 1390.54499023 -305.75708008 1389.86499023 C-305.050271 1389.75018311 -304.34346191 1389.63537598 -303.61523438 1389.51708984 C-250.92930232 1380.83855899 -201.82097692 1363.44708552 -157.75708008 1332.86499023 C-156.94424561 1332.30908203 -156.94424561 1332.30908203 -156.11499023 1331.74194336 C-146.79618912 1325.35767494 -138.22181823 1318.33518416 -129.75708008 1310.86499023 C-128.31973507 1309.61481202 -126.88226393 1308.36477877 -125.44458008 1307.11499023 C-124.84516602 1306.58647461 -124.24575195 1306.05795898 -123.62817383 1305.51342773 C-122.23078766 1304.2823276 -120.82590164 1303.05973075 -119.41723633 1301.84155273 C-115.4519425 1298.38397075 -112.00471422 1295.02196193 -108.75708008 1290.86499023 C-108.09708008 1290.86499023 -107.43708008 1290.86499023 -106.75708008 1290.86499023 C-106.52375977 1290.30811523 -106.29043945 1289.75124023 -106.05004883 1289.17749023 C-104.42759388 1286.27569769 -102.38929412 1284.25058554 -100.06958008 1281.86499023 C-87.9023113 1268.94640136 -77.70866702 1254.15148693 -68.75708008 1238.86499023 C-68.37358398 1238.2161084 -67.99008789 1237.56722656 -67.5949707 1236.89868164 C-53.53067302 1212.98113018 -36.75708008 1181.09860491 -36.75708008 1152.86499023 C-37.35649414 1153.5365918 -37.9559082 1154.20819336 -38.57348633 1154.90014648 C-45.65545438 1162.73993366 -53.04480166 1170.26462245 -60.50708008 1177.73999023 C-61.00176788 1178.2371756 -61.49645569 1178.73436096 -62.00613403 1179.24661255 C-67.20550728 1184.46748903 -72.4418831 1189.59822299 -78.04077148 1194.39379883 C-80.43903036 1196.44954676 -82.74954376 1198.59675295 -85.06958008 1200.73999023 C-90.47208063 1205.66012467 -96.04694262 1210.30756769 -101.75708008 1214.86499023 C-102.27077148 1215.2782959 -102.78446289 1215.69160156 -103.3137207 1216.11743164 C-123.34880646 1232.22181284 -144.4925339 1247.00519449 -166.75708008 1259.86499023 C-167.69535645 1260.40736328 -167.69535645 1260.40736328 -168.65258789 1260.96069336 C-172.637238 1263.25323178 -176.64558889 1265.49915513 -180.67358398 1267.71459961 C-182.04652571 1268.47266165 -183.41610361 1269.23685304 -184.78198242 1270.00756836 C-229.03318041 1294.93247473 -279.71869502 1310.53715235 -329.69458008 1318.55249023 C-330.94303711 1318.75519531 -332.19149414 1318.95790039 -333.4777832 1319.16674805 C-353.19980373 1322.1974023 -372.84093569 1323.19750837 -392.78222656 1323.12573242 C-396.32024212 1323.11498822 -399.85775136 1323.12571606 -403.39575195 1323.13842773 C-423.888569 1323.15303892 -443.86654999 1321.48750304 -464.06958008 1318.11499023 C-464.85935242 1317.98493591 -465.64912476 1317.85488159 -466.46282959 1317.72088623 C-480.39873967 1315.41423598 -494.12860996 1312.60963118 -507.75708008 1308.86499023 C-509.37501465 1308.42050537 -509.37501465 1308.42050537 -511.02563477 1307.96704102 C-536.18961306 1300.95442701 -560.21992771 1292.19899386 -583.75708008 1280.86499023 C-584.50248047 1280.51082031 -585.24788086 1280.15665039 -586.01586914 1279.79174805 C-604.47650649 1271.0030505 -621.97933219 1260.52806222 -638.75708008 1248.86499023 C-639.39226562 1248.42413086 -640.02745117 1247.98327148 -640.68188477 1247.52905273 C-656.3772075 1236.58461216 -671.52271083 1224.86767498 -685.54223633 1211.83374023 C-687.59387128 1209.83827235 -687.59387128 1209.83827235 -689.75708008 1208.86499023 C-689.75708008 1208.20499023 -689.75708008 1207.54499023 -689.75708008 1206.86499023 C-690.29228271 1206.65503418 -690.82748535 1206.44507813 -691.37890625 1206.22875977 C-694.6797031 1204.33590983 -697.15591596 1201.73139688 -699.80786133 1199.04467773 C-700.38489304 1198.46718781 -700.96192474 1197.88969788 -701.55644226 1197.29470825 C-702.7766567 1196.07147657 -703.99444359 1194.84581918 -705.20996094 1193.61791992 C-707.04750768 1191.76227997 -708.89276546 1189.91460487 -710.73950195 1188.06811523 C-716.62068324 1182.16928053 -722.39036934 1176.24227236 -727.75708008 1169.86499023 C-728.60270508 1168.90077148 -729.44833008 1167.93655273 -730.31958008 1166.94311523 C-738.63588224 1157.29407234 -746.24663696 1147.14896731 -753.75708008 1136.86499023 C-754.34924316 1136.05642578 -754.94140625 1135.24786133 -755.55151367 1134.41479492 C-801.38654151 1071.46682874 -830.50261791 996.1046462 -839.75708008 918.86499023 C-839.92264404 917.48947998 -839.92264404 917.48947998 -840.09155273 916.08618164 C-841.75930807 901.72247466 -842.41869344 887.31535318 -842.75708008 872.86499023 C-842.78576172 871.72449219 -842.81444336 870.58399414 -842.84399414 869.40893555 C-844.27172529 803.96824588 -831.28824214 737.04543187 -804.77954102 677.17456055 C-803.71110819 674.76114735 -802.6599432 672.34059731 -801.60864258 669.91967773 C-796.50709977 658.27879248 -790.80942713 647.03706387 -784.75708008 635.86499023 C-783.99331055 634.43219727 -783.99331055 634.43219727 -783.21411133 632.97045898 C-781.75493374 630.25322212 -780.25928117 627.55870992 -778.75708008 624.86499023 C-778.37422852 624.16809082 -777.99137695 623.47119141 -777.59692383 622.75317383 C-759.86349428 590.54847173 -738.14977336 560.27758309 -714.12670898 532.45678711 C-712.68608533 530.7824794 -711.25776605 529.0982456 -709.83129883 527.41186523 C-704.20570679 520.77781748 -698.46750186 514.28200484 -692.50146484 507.95092773 C-689.81521242 505.13723567 -689.81521242 505.13723567 -687.75708008 501.86499023 C-687.09708008 501.86499023 -686.43708008 501.86499023 -685.75708008 501.86499023 C-685.49162384 501.27454422 -685.2261676 500.68409821 -684.95266724 500.07575989 C-683.72234783 497.80076656 -682.45299933 496.31332533 -680.62768555 494.49267578 C-679.99297333 493.85488693 -679.35826111 493.21709808 -678.70431519 492.5599823 C-678.01789948 491.88075211 -677.33148376 491.20152191 -676.62426758 490.50170898 C-675.91360138 489.79150101 -675.20293518 489.08129303 -674.47073364 488.3495636 C-672.96503102 486.84688066 -671.4569001 485.34662755 -669.9465332 483.84863281 C-667.65631705 481.57653546 -665.37406697 479.29667701 -663.09301758 477.01538086 C-661.6247358 475.55202028 -660.15599985 474.08911525 -658.68676758 472.62670898 C-658.01249725 471.95355148 -657.33822693 471.28039398 -656.64352417 470.58683777 C-652.71732905 466.69896514 -648.68410667 462.99047295 -644.50286865 459.37843323 C-642.57401479 457.70628896 -640.70661397 455.98159791 -638.86254883 454.21655273 C-638.222771 453.60835693 -637.58299316 453.00016113 -636.92382812 452.37353516 C-636.27067627 451.75196533 -635.61752441 451.13039551 -634.94458008 450.48999023 C-629.56806508 445.40763486 -624.11832418 440.58104869 -618.33129883 435.97045898 C-615.5467766 433.69298177 -612.90294204 431.30187016 -610.25708008 428.86499023 C-605.45213462 424.45256145 -600.48897165 420.30432882 -595.41186523 416.21069336 C-593.49912901 414.65521947 -591.60223239 413.08152472 -589.70629883 411.50561523 C-582.57363747 405.58113118 -575.41868968 399.75479718 -567.95239258 394.25170898 C-563.98443026 391.28786427 -560.09288044 388.23201347 -556.19458008 385.17749023 C-546.85450145 377.88076953 -537.3386623 370.84027093 -527.75708008 363.86499023 C-526.98831543 363.30392578 -526.21955078 362.74286133 -525.42749023 362.16479492 C-516.4036521 355.58359995 -507.31787731 349.10766125 -498.0871582 342.81958008 C-495.23646151 340.87595843 -492.38917438 338.92751572 -489.54516602 336.97412109 C-477.73790194 328.86857432 -465.86277668 320.86889129 -453.94458008 312.92749023 C-453.02675751 312.31558838 -452.10893494 311.70368652 -451.16329956 311.07324219 C-438.55176091 302.6694805 -425.90753985 294.33709453 -413.0559082 286.3034668 C-409.85465821 284.30030569 -406.66442241 282.27987931 -403.47338867 280.26049805 C-401.10836901 278.76452583 -398.74156129 277.27142321 -396.37426758 275.77905273 C-393.33461661 273.86216725 -390.29830043 271.94017656 -387.26489258 270.01342773 C-370.83192825 259.58498557 -354.28835201 249.31946707 -337.56738281 239.35839844 C-330.40517547 235.07927884 -323.3182173 230.67707301 -316.21728516 226.29736328 C-307.98161666 221.22099408 -299.71930973 216.1898898 -291.44458008 211.17749023 C-282.40665075 205.70214237 -273.39531088 200.18681378 -264.42041016 194.60864258 C-258.01578037 190.63189949 -251.57828071 186.71141335 -245.13208008 182.80249023 C-237.38058917 178.09765656 -229.67512245 173.32946 -222.02124023 168.4675293 C-216.71790921 165.09882331 -211.39310094 161.76670677 -206.05712891 158.44995117 C-193.17103107 150.43340171 -180.419788 142.22959565 -167.75708008 133.86499023 C-167.17448425 133.48024536 -166.59188843 133.09550049 -165.99163818 132.69909668 C-149.75810808 121.97436159 -133.59777534 111.16557708 -117.75708008 99.86499023 C-116.99540527 99.32326172 -116.23373047 98.7815332 -115.44897461 98.22338867 C-100.89809023 87.85930088 -86.61650786 77.14045691 -72.75708008 65.86499023 C-71.49250977 64.84405273 -71.49250977 64.84405273 -70.20239258 63.80249023 C-65.0195932 59.5961603 -59.89826334 55.32106434 -54.81958008 50.98999023 C-54.29525391 50.54494141 -53.77092773 50.09989258 -53.23071289 49.64135742 C-43.11894616 40.97499639 -33.5233994 31.79730588 -24.12792969 22.36621094 C-22.43188281 20.66475246 -20.73048187 18.96877761 -19.02856445 17.27319336 C-17.92075334 16.16485832 -16.81332376 15.05614177 -15.70629883 13.94702148 C-15.17559784 13.41771027 -14.64489685 12.88839905 -14.09811401 12.3430481 C-10.57745579 8.79717814 -7.37708464 5.11080026 -4.42822266 1.06689453 C-2.75708008 -0.13500977 -2.75708008 -0.13500977 0 0 Z " fill="#0070AD" transform="translate(842.757080078125,0.135009765625)"/>
<path d="M0 0 C0.68462311 0.00254791 1.36924622 0.00509583 2.07461548 0.00772095 C6.75835558 0.02804927 11.44151598 0.07248765 16.125 0.125 C17.08229004 0.13225098 18.03958008 0.13950195 19.02587891 0.14697266 C42.17955725 0.41115116 67.41592303 3.22479594 89.52490234 10.29394531 C91.48644664 10.92090276 93.45403318 11.52900091 95.42431641 12.12792969 C118.9236719 19.28659064 141.26032823 28.38317122 161.125 43.125 C161.99294189 43.76405273 161.99294189 43.76405273 162.87841797 44.41601562 C174.93036067 53.37286817 186.71152731 63.37381347 196.125 75.125 C196.52251465 75.6101709 196.9200293 76.0953418 197.32958984 76.59521484 C204.25074527 85.0515992 210.51756244 93.74471644 216.125 103.125 C216.52041992 103.78419434 216.91583984 104.44338867 217.32324219 105.12255859 C239.39227385 142.33889152 249.65910834 184.20628141 256.92041016 226.50024414 C257.06655762 227.34707764 257.21270508 228.19391113 257.36328125 229.06640625 C257.48743408 229.80576416 257.61158691 230.54512207 257.73950195 231.30688477 C258.06377401 233.21251894 258.06377401 233.21251894 259.125 235.125 C260.26685183 267.10087195 253.37785056 300.69203638 244.125 331.125 C243.81079102 332.16205078 243.49658203 333.19910156 243.17285156 334.26757812 C224.31127426 395.58139862 186.76816025 457.62360032 135.85546875 497.95703125 C132.97414348 500.24477878 130.17751508 502.6165526 127.375 505 C73.69278183 549.65478482 4.64291154 576.29173971 -64.875 581.125 C-65.68259766 581.18139648 -66.49019531 581.23779297 -67.32226562 581.29589844 C-104.10788303 583.74924072 -141.23885421 580.7204356 -176.875 571.125 C-177.67357422 570.91681641 -178.47214844 570.70863281 -179.29492188 570.49414062 C-213.76981063 561.4070856 -245.94667719 544.12014346 -273.875 522.125 C-275.07189453 521.19880859 -275.07189453 521.19880859 -276.29296875 520.25390625 C-278.85143695 518.24636432 -281.36813697 516.19666873 -283.875 514.125 C-284.39336426 513.69832031 -284.91172852 513.27164063 -285.44580078 512.83203125 C-300.15405948 500.64555407 -314.64353082 487.28855143 -326.31640625 472.12109375 C-327.73618073 470.30278609 -329.23108604 468.73686551 -330.875 467.125 C-328.33714936 490.92011515 -323.79868365 513.51919665 -315.875 536.125 C-315.63168945 536.82028809 -315.38837891 537.51557617 -315.13769531 538.23193359 C-303.96452695 569.47425556 -284.36788334 595.5782074 -261.25 618.875 C-260.74098145 619.38877197 -260.23196289 619.90254395 -259.70751953 620.43188477 C-257.04429742 623.11416604 -257.04429742 623.11416604 -253.875 625.125 C-253.875 625.785 -253.875 626.445 -253.875 627.125 C-253.194375 627.33125 -252.51375 627.5375 -251.8125 627.75 C-248.76407849 629.17692071 -246.70128268 631.00010977 -244.20703125 633.22265625 C-238.7753347 637.65353769 -232.77355505 641.35230423 -226.875 645.125 C-225.905625 645.74632812 -224.93625 646.36765625 -223.9375 647.0078125 C-207.77327632 656.88084685 -189.83302779 663.36166504 -171.875 669.125 C-171.09447266 669.37765625 -170.31394531 669.6303125 -169.50976562 669.890625 C-143.08074907 678.28819425 -115.35040865 679.39570882 -87.875 681.125 C-88.81219347 682.23215795 -89.75139153 683.3376192 -90.69140625 684.44238281 C-91.47559937 685.36606659 -91.47559937 685.36606659 -92.27563477 686.30841064 C-94.6519133 689.00743286 -97.22164798 691.45194204 -99.875 693.875 C-100.43622559 694.38885254 -100.99745117 694.90270508 -101.57568359 695.43212891 C-107.74695705 701.01109706 -114.24428871 706.10805182 -120.875 711.125 C-121.57866699 711.66382813 -122.28233398 712.20265625 -123.00732422 712.7578125 C-141.56930525 726.94345733 -161.45046033 738.83066085 -181.875 750.125 C-182.69871094 750.58084473 -183.52242187 751.03668945 -184.37109375 751.50634766 C-208.56180222 764.78161994 -234.05277496 775.47471453 -259.875 785.125 C-260.51312622 785.36434265 -261.15125244 785.6036853 -261.80871582 785.85028076 C-285.14677659 794.59032461 -308.79691315 801.72524599 -332.875 808.125 C-333.63619141 808.32867188 -334.39738281 808.53234375 -335.18164062 808.7421875 C-383.94897465 821.78608185 -433.69047979 829.947269 -483.875 835.125 C-485.09987122 835.25355377 -485.09987122 835.25355377 -486.3494873 835.38470459 C-538.79017908 840.83013068 -595.68940199 842.38925354 -647.875 834.125 C-649.32922506 833.90290032 -650.78349016 833.68106266 -652.23779297 833.45947266 C-694.35949496 826.94003148 -744.56565939 815.63767921 -774.875 783.125 C-774.875 782.465 -774.875 781.805 -774.875 781.125 C-773.81478638 780.95278931 -773.81478638 780.95278931 -772.7331543 780.77709961 C-720.04722225 772.09856876 -670.93889684 754.70709529 -626.875 724.125 C-626.33311035 723.75439453 -625.7912207 723.38378906 -625.23291016 723.00195312 C-615.91410904 716.6176847 -607.33973815 709.59519393 -598.875 702.125 C-597.43765499 700.87482179 -596.00018385 699.62478854 -594.5625 698.375 C-593.96308594 697.84648438 -593.36367188 697.31796875 -592.74609375 696.7734375 C-591.34870758 695.54233737 -589.94382156 694.31974051 -588.53515625 693.1015625 C-584.56986242 689.64398052 -581.12263414 686.2819717 -577.875 682.125 C-577.215 682.125 -576.555 682.125 -575.875 682.125 C-575.64167969 681.568125 -575.40835938 681.01125 -575.16796875 680.4375 C-573.5455138 677.53570746 -571.50721404 675.51059531 -569.1875 673.125 C-557.02023123 660.20641113 -546.82658694 645.4114967 -537.875 630.125 C-537.49150391 629.47611816 -537.10800781 628.82723633 -536.71289062 628.15869141 C-522.72490686 604.37091834 -513.07182825 579.35393639 -507.06640625 552.3984375 C-506.85854492 551.4808667 -506.65068359 550.5632959 -506.43652344 549.61791992 C-505.96448497 547.52227436 -505.50603713 545.42357406 -505.05078125 543.32421875 C-503.55990625 539.26765189 -501.39171142 536.71459816 -498.5 533.5625 C-497.40995262 532.33221164 -496.32011473 531.10173764 -495.23046875 529.87109375 C-494.67278809 529.24960449 -494.11510742 528.62811523 -493.54052734 527.98779297 C-490.92751759 525.06529745 -488.3663907 522.09916709 -485.8125 519.125 C-485.06842896 518.25959595 -485.06842896 518.25959595 -484.30932617 517.37670898 C-479.43399657 511.67119767 -474.81142417 505.78047925 -470.21630859 499.84863281 C-468.91008523 498.17008587 -467.59242749 496.50136493 -466.26953125 494.8359375 C-454.49657941 480.00271818 -443.20569689 464.81622807 -432.38183594 449.27783203 C-430.85202846 447.09218033 -429.3067839 444.91819805 -427.7578125 442.74609375 C-406.19918794 412.40623406 -386.53285235 380.71229378 -366.875 349.125 C-366.30362305 348.20799316 -365.73224609 347.29098633 -365.14355469 346.34619141 C-358.90223878 336.32494912 -352.73091694 326.26664722 -346.67285156 316.13354492 C-336.83127494 299.67716429 -326.8786093 283.28488391 -316.75805664 266.99853516 C-313.81349837 262.26002907 -310.88403982 257.51288497 -307.97265625 252.75390625 C-299.80506289 239.40746095 -291.51420293 226.17109948 -282.875 213.125 C-282.44709167 212.47819275 -282.01918335 211.8313855 -281.57830811 211.16497803 C-278.52261776 206.54674129 -275.46176252 201.93196787 -272.39624023 197.32025146 C-271.36145272 195.76340432 -270.32724764 194.20616985 -269.29370117 192.64849854 C-254.26653527 170.0148603 -238.63514033 147.78283868 -221.29882812 126.84863281 C-219.28659527 124.41269935 -217.3019225 121.95457525 -215.3125 119.5 C-200.3041042 101.22890946 -184.45376368 83.96630136 -166.875 68.125 C-166.29572754 67.60099609 -165.71645508 67.07699219 -165.11962891 66.53710938 C-119.40580622 25.4750536 -61.8662023 -0.23288111 0 0 Z " fill="#11AADA" transform="translate(1311.875,608.875)"/>
</svg>
